<svg width="24" height="24" viewBox="0 0 24 24" fill="none" xmlns="http://www.w3.org/2000/svg">
<path d="M22.3901 6.26948C21.3171 4.43091 19.8615 2.97531 18.0231 1.90235C16.1844 0.829337 14.1771 0.292969 11.9998 0.292969C9.82276 0.292969 7.81481 0.829502 5.97651 1.90235C4.13794 2.97525 2.68245 4.43091 1.60938 6.26948C0.536478 8.10799 0 10.1157 0 12.2924C0 14.9073 0.762879 17.2586 2.28902 19.3469C3.815 21.4355 5.78634 22.8807 8.20287 23.6827C8.48416 23.7349 8.69239 23.6982 8.82778 23.5735C8.96323 23.4486 9.03087 23.2922 9.03087 23.1049C9.03087 23.0737 9.02819 22.7925 9.02299 22.2612C9.01763 21.7299 9.01511 21.2664 9.01511 20.8708L8.65573 20.933C8.42659 20.975 8.13753 20.9928 7.78854 20.9877C7.43972 20.9829 7.07759 20.9463 6.70267 20.8783C6.32758 20.811 5.9787 20.6547 5.65576 20.4099C5.33299 20.1652 5.10385 19.8447 4.9684 19.4492L4.81216 19.0896C4.70802 18.8503 4.54406 18.5843 4.32006 18.2929C4.09607 18.0011 3.86956 17.8033 3.64042 17.6992L3.53103 17.6209C3.45813 17.5688 3.39049 17.5061 3.32794 17.4332C3.26544 17.3604 3.21865 17.2875 3.1874 17.2145C3.1561 17.1414 3.18204 17.0815 3.2655 17.0345C3.34895 16.9875 3.49978 16.9647 3.71863 16.9647L4.031 17.0114C4.23934 17.0531 4.49705 17.1778 4.80444 17.3863C5.11167 17.5946 5.36423 17.8654 5.56218 18.1985C5.80188 18.6257 6.09067 18.9512 6.42937 19.1752C6.76779 19.3992 7.10901 19.511 7.45269 19.511C7.79636 19.511 8.0932 19.485 8.34329 19.4331C8.59312 19.381 8.82751 19.3027 9.04636 19.1986C9.1401 18.5004 9.39535 17.9641 9.81187 17.5892C9.2182 17.5268 8.68446 17.4328 8.21037 17.3079C7.73655 17.1828 7.24692 16.9797 6.7418 16.6982C6.2364 16.4171 5.81715 16.068 5.48392 15.6515C5.15064 15.2348 4.87712 14.6878 4.66374 14.0109C4.45026 13.3337 4.34349 12.5526 4.34349 11.6672C4.34349 10.4066 4.75503 9.33386 5.57794 8.44839C5.19245 7.50065 5.22884 6.4382 5.68723 5.26115C5.98931 5.1673 6.4373 5.23773 7.03097 5.47201C7.62474 5.7064 8.05949 5.90719 8.33563 6.07367C8.61178 6.24009 8.83304 6.38112 8.99973 6.4955C9.96866 6.22477 10.9686 6.08937 11.9997 6.08937C13.0308 6.08937 14.031 6.22477 14.9999 6.4955L15.5937 6.12068C15.9997 5.87058 16.4791 5.64139 17.0309 5.43305C17.5829 5.22481 18.0051 5.16746 18.2969 5.26132C18.7655 6.43842 18.8072 7.50081 18.4216 8.44855C19.2445 9.33402 19.6562 10.407 19.6562 11.6674C19.6562 12.5527 19.549 13.3363 19.3359 14.0187C19.1224 14.7012 18.8466 15.2477 18.5081 15.6594C18.1693 16.0709 17.7474 16.4173 17.2423 16.6984C16.737 16.9797 16.2473 17.1827 15.7734 17.3078C15.2994 17.4329 14.7657 17.5269 14.172 17.5894C14.7134 18.058 14.9842 18.7976 14.9842 19.808V23.1045C14.9842 23.2918 15.0494 23.4481 15.1797 23.573C15.3099 23.6978 15.5155 23.7345 15.7968 23.6822C18.2137 22.8803 20.185 21.4351 21.7109 19.3465C23.2367 17.2581 23.9998 14.9068 23.9998 12.292C23.9993 10.1155 23.4625 8.10799 22.3901 6.26948Z" fill="black"/>
</svg>
