<svg width="650" height="379" viewBox="0 0 650 379" fill="none" xmlns="http://www.w3.org/2000/svg">
<g clip-path="url(#clip0)">
<path d="M209.925 369.265C311.895 369.265 394.558 286.602 394.558 184.633C394.558 82.6628 311.895 0 209.925 0C107.956 0 25.2927 82.6628 25.2927 184.633C25.2927 286.602 107.956 369.265 209.925 369.265Z" fill="#F2F2F2"/>
<path d="M650 327.527C649.999 327.976 649.963 328.425 649.893 328.868C645.378 356.537 501.644 378.743 325 378.743C148.356 378.743 4.62208 356.537 0.107489 328.868C0.0369149 328.425 0.000977272 327.976 0 327.527C0 327.401 -2.12229e-06 327.268 0.0126438 327.142C0.0126438 327.072 0.0189681 327.009 0.0189681 326.939C0.0241908 326.915 0.0263159 326.889 0.0252924 326.864C0.0505842 326.579 0.0885222 326.307 0.139106 326.029C2.20039 314.717 27.5491 304.322 68.8949 295.995C102.71 289.185 147.23 283.754 198.471 280.339C237.358 277.747 280.113 276.312 325 276.312C361.117 276.312 395.855 277.241 428.304 278.948H428.317C435.108 279.309 441.798 279.703 448.386 280.131C493.488 283.052 533.512 287.522 565.759 293.118C585.594 296.564 602.496 300.44 615.831 304.638H615.837C636.361 311.107 648.464 318.359 649.861 326.029C649.912 326.307 649.949 326.579 649.975 326.864C649.974 326.889 649.976 326.915 649.981 326.939C649.981 327.009 649.987 327.072 649.987 327.142C650 327.268 650 327.401 650 327.527Z" fill="#3F3D56"/>
<path opacity="0.1" d="M316.78 376.846C374.399 376.846 421.109 370.052 421.109 361.671C421.109 353.29 374.399 346.496 316.78 346.496C259.161 346.496 212.451 353.29 212.451 361.671C212.451 370.052 259.161 376.846 316.78 376.846Z" fill="black"/>
<path opacity="0.1" d="M615.831 304.639C612.183 305.682 608.073 306.649 603.564 307.535C585 311.189 559.67 313.434 531.78 313.434C500.62 313.434 472.692 310.633 453.767 306.2C438.061 302.52 428.551 297.734 428.551 292.48C428.551 287.864 435.911 283.59 448.386 280.131C493.488 283.052 533.512 287.522 565.759 293.118C585.594 296.564 602.496 300.44 615.831 304.639Z" fill="black"/>
<path opacity="0.1" d="M336.381 297.651C336.381 307.218 276.364 314.976 202.335 314.976C128.305 314.976 68.2878 307.218 68.2878 297.651C68.3038 297.048 68.517 296.466 68.8948 295.995C102.71 289.185 147.23 283.754 198.471 280.339C199.755 280.333 201.043 280.331 202.335 280.333C276.364 280.333 336.381 288.085 336.381 297.651Z" fill="black"/>
<path d="M289.691 211.804H263.333V296.901H289.691V211.804Z" fill="#5D78FF"/>
<path d="M203.088 171.891H176.73V296.9H203.088V171.891Z" fill="#5D78FF"/>
<path d="M117.238 171.891H90.8801V296.9H117.238V171.891Z" fill="#5D78FF"/>
<path d="M160.163 171.891H133.805V256.988H160.163V171.891Z" fill="#5D78FF"/>
<path d="M246.013 171.891H219.655V196.742H246.013V171.891Z" fill="#5D78FF"/>
<path d="M246.013 211.804H219.655V296.901H246.013V211.804Z" fill="#8A8B8C"/>
<path d="M332.616 171.891H263.333V196.742H332.616V171.891Z" fill="#5D78FF"/>
<path d="M515.36 164.415C533.38 164.415 548.718 170.704 561.375 183.282C567.335 189.196 572.032 196.261 575.179 204.046C581.45 219.973 581.471 237.681 575.239 253.624C572.14 261.319 567.457 268.276 561.493 274.043C555.362 280.151 548.092 284.997 540.096 288.308C532.26 291.578 523.854 293.259 515.364 293.254C506.97 293.28 498.657 291.617 490.918 288.365C475.155 281.654 462.601 269.101 455.89 253.338C449.428 237.618 449.448 219.98 455.946 204.275C459.237 196.368 464.066 189.192 470.153 183.165C482.423 170.668 497.492 164.418 515.36 164.415ZM515.594 176.035C500.869 176.035 488.483 181.173 478.435 191.45C473.48 196.428 469.518 202.303 466.759 208.763C464.063 215.091 462.674 221.9 462.674 228.778C462.674 235.657 464.063 242.465 466.759 248.794C472.315 261.7 482.639 271.963 495.577 277.443C501.935 280.072 508.749 281.421 515.629 281.411C522.51 281.401 529.32 280.034 535.671 277.387C542.203 274.665 548.156 270.722 553.211 265.769C563.257 255.953 568.279 243.643 568.278 228.84C568.315 221.9 566.985 215.02 564.366 208.594C561.75 202.213 557.879 196.423 552.984 191.566C542.624 181.213 530.161 176.036 515.594 176.035ZM514.786 218.14L506.156 222.627C505.459 220.972 504.276 219.568 502.764 218.601C501.638 217.9 500.349 217.503 499.023 217.451C493.274 217.451 490.398 221.248 490.395 228.84C490.395 232.29 491.123 235.05 492.579 237.12C494.037 239.191 496.185 240.227 499.023 240.228C502.782 240.228 505.429 238.387 506.963 234.706L514.899 238.732C513.279 241.808 510.845 244.379 507.863 246.164C504.88 247.95 501.464 248.881 497.989 248.857C492.237 248.857 487.597 247.092 484.068 243.564C480.541 240.037 478.777 235.13 478.777 228.842C478.777 222.706 480.56 217.836 484.126 214.232C487.691 210.629 492.197 208.826 497.644 208.825C505.622 208.821 511.336 211.926 514.786 218.14ZM551.943 218.14L543.429 222.627C542.733 220.972 541.549 219.567 540.035 218.601C538.873 217.889 537.545 217.492 536.182 217.451C530.43 217.451 527.554 221.248 527.552 228.84C527.552 232.29 528.28 235.05 529.738 237.12C531.193 239.191 533.341 240.227 536.182 240.228C539.937 240.228 542.581 238.387 544.116 234.706L552.168 238.732C550.489 241.792 548.029 244.352 545.04 246.153C542.094 247.943 538.709 248.879 535.262 248.857C529.432 248.857 524.774 247.092 521.289 243.564C517.794 240.037 516.048 235.13 516.051 228.842C516.051 222.706 517.834 217.836 521.402 214.232C524.965 210.629 529.47 208.826 534.916 208.825C542.892 208.821 548.568 211.926 551.943 218.14Z" fill="#5D78FF"/>
<path opacity="0.1" d="M476.382 322.683C476.382 353.499 433.428 343.968 380.834 343.968C328.241 343.968 285.924 353.499 285.924 322.683C285.924 291.866 328.873 285.164 381.466 285.164C434.06 285.164 476.382 291.866 476.382 322.683Z" fill="black"/>
<path d="M476.382 315.095C476.382 345.911 433.428 336.38 380.834 336.38C328.241 336.38 285.924 345.912 285.924 315.095C285.924 284.278 328.873 277.576 381.466 277.576C434.06 277.576 476.382 284.278 476.382 315.095Z" fill="#3F3D56"/>
<path d="M467.609 259.773L469.78 268.729C469.804 268.829 469.8 268.933 469.769 269.031L459.921 299.807C459.882 299.929 459.802 300.034 459.695 300.104C459.588 300.174 459.461 300.206 459.333 300.193C459.206 300.181 459.087 300.125 458.996 300.035C458.904 299.945 458.847 299.827 458.832 299.7L457.47 287.711C457.461 287.631 457.469 287.55 457.494 287.474L466.534 259.732C466.571 259.616 466.646 259.516 466.746 259.446C466.845 259.377 466.965 259.341 467.087 259.346C467.209 259.351 467.325 259.395 467.42 259.472C467.514 259.549 467.58 259.655 467.609 259.773V259.773Z" fill="#2F2E41"/>
<path d="M466.81 260.53L468.815 268.214L460.129 296.276L458.124 287.591L466.81 260.53Z" fill="#F2F2F2"/>
<path d="M423.046 302.289C423.38 303.292 457.79 301.955 458.124 301.621C458.416 301.203 458.662 300.755 458.859 300.285C459.173 299.617 459.461 298.949 459.461 298.949L458.124 288.131L424.048 286.922C424.048 286.922 423.197 296.089 423.023 300.285C422.964 300.952 422.971 301.624 423.046 302.289V302.289Z" fill="#2F2E41"/>
<path opacity="0.1" d="M453.782 289.595L454.449 298.949H439.416V289.595H453.782Z" fill="black"/>
<path opacity="0.1" d="M434.405 292.601L434.495 292.583L434.071 296.609H425.719V292.601H434.405Z" fill="black"/>
<path opacity="0.1" d="M423.046 302.29C423.38 303.292 457.79 301.956 458.124 301.621C458.416 301.203 458.662 300.755 458.859 300.285H423.023C422.964 300.952 422.971 301.624 423.046 302.29V302.29Z" fill="black"/>
<path d="M369.928 267.212H379.282L402.334 258.192C402.334 258.192 418.703 251.51 417.367 264.205C416.031 276.9 413.692 293.938 413.692 293.938C413.692 293.938 406.342 290.597 402.334 291.599C398.325 292.602 400.997 271.221 400.997 271.221C400.997 271.221 368.258 286.922 365.251 284.918C362.244 282.913 361.576 268.882 361.576 268.882L369.928 267.212Z" fill="#2F2E41"/>
<path opacity="0.1" d="M369.928 267.212H379.282L402.334 258.192C402.334 258.192 418.703 251.51 417.367 264.205C416.031 276.9 413.692 293.938 413.692 293.938C413.692 293.938 406.342 290.597 402.334 291.599C398.325 292.602 400.997 271.221 400.997 271.221C400.997 271.221 368.258 286.922 365.251 284.918C362.244 282.913 361.576 268.882 361.576 268.882L369.928 267.212Z" fill="black"/>
<path d="M384.665 237.918L395.986 254.183L422.378 276.232C422.378 276.232 446.766 281.911 443.425 285.92C440.084 289.929 419.705 281.911 419.705 281.911C419.705 281.911 389.304 259.862 388.302 258.192C387.3 256.521 376.275 240.82 376.275 240.82L384.665 237.918Z" fill="#A0616A"/>
<path opacity="0.1" d="M384.665 237.918L395.986 254.183L422.378 276.232C422.378 276.232 446.766 281.911 443.425 285.92C440.084 289.929 419.705 281.911 419.705 281.911C419.705 281.911 389.304 259.862 388.302 258.192C387.3 256.521 376.275 240.82 376.275 240.82L384.665 237.918Z" fill="black"/>
<path d="M382.957 220.107C391.26 220.107 397.991 213.376 397.991 205.073C397.991 196.771 391.26 190.04 382.957 190.04C374.654 190.04 367.924 196.771 367.924 205.073C367.924 213.376 374.654 220.107 382.957 220.107Z" fill="#A0616A"/>
<path d="M381.955 218.437C381.955 218.437 376.944 227.123 375.941 231.8C374.939 236.477 360.908 222.445 360.908 222.445L359.071 217.601C359.071 217.601 372.267 211.421 371.264 206.41C370.262 201.399 381.955 218.437 381.955 218.437Z" fill="#A0616A"/>
<path d="M377.946 224.784L385.296 239.149C385.296 239.149 383.625 246.165 380.953 246.833C378.28 247.501 366.921 238.147 366.921 238.147L377.946 224.784Z" fill="#D0CDE1"/>
<path d="M384.627 244.494L398.325 262.534L431.064 286.922C431.064 286.922 454.784 291.933 449.438 295.608C444.093 299.283 428.726 292.267 428.726 292.267C428.726 292.267 395.652 274.561 388.636 267.211C381.621 259.862 368.592 247.501 368.592 247.501L384.627 244.494Z" fill="#A0616A"/>
<path d="M366.253 272.556L370.262 278.904L394.188 271.377C396.78 270.539 399.523 270.274 402.227 270.6C404.931 270.927 407.532 271.836 409.85 273.266C414.026 275.897 416.699 280.073 410.686 286.254C398.659 298.614 390.641 291.933 390.641 291.933C390.641 291.933 350.218 310.975 343.536 301.621C336.855 292.267 336.521 287.59 336.521 287.59C336.521 287.59 362.244 271.554 366.253 272.556Z" fill="#2F2E41"/>
<path d="M416.365 294.606C416.365 294.606 427.055 301.622 414.36 304.963C401.665 308.303 392.311 303.626 392.311 303.626C392.311 303.626 381.287 303.626 381.287 297.947C381.287 292.268 384.961 291.6 384.961 291.6L396.32 293.27C396.32 293.27 410.017 289.595 416.365 294.606Z" fill="#D0CDE1"/>
<path d="M395.29 201.292C396.278 201.823 397.339 202.204 398.44 202.42C398.993 202.519 399.563 202.454 400.079 202.233C400.596 202.011 401.036 201.644 401.346 201.175C401.592 200.62 401.705 200.014 401.676 199.408C401.716 197.573 401.583 195.59 400.421 194.17C399.681 193.267 398.601 192.697 397.835 191.816C397.321 191.155 396.882 190.439 396.528 189.68C395.039 186.883 392.833 184.194 389.769 183.388C388.473 183.109 387.146 183.008 385.823 183.086L378.105 183.195C376.855 183.155 375.605 183.289 374.392 183.595C371.908 184.346 370.099 186.435 368.443 188.433C367.157 189.889 366.014 191.466 365.031 193.142C363.697 195.629 363.023 198.416 363.072 201.238C363.062 201.961 363.155 202.683 363.35 203.38C363.577 204.019 363.859 204.638 364.192 205.23C365.639 208.072 366.498 211.623 364.868 214.366C367.7 213.209 370.501 211.692 372.369 209.27C373.205 208.187 373.86 206.918 374.974 206.123C376.087 205.328 377.902 205.259 378.616 206.426C378.862 206.898 378.988 207.423 378.985 207.955C378.962 208.834 379.105 209.71 379.407 210.536C379.568 210.945 379.865 211.286 380.246 211.504C380.628 211.722 381.073 211.803 381.507 211.734C382.962 211.325 382.823 209.092 383.943 208.078C384.794 207.308 386.106 207.455 387.199 207.106C387.826 206.868 388.396 206.502 388.873 206.031C389.351 205.561 389.725 204.997 389.973 204.374C390.387 203.446 390.381 201.017 391.164 200.514C392.146 199.883 394.379 200.886 395.29 201.292Z" fill="#2F2E41"/>
<path d="M357.877 216.017C358.554 215.836 359.266 215.838 359.941 216.022C362.086 216.598 366.893 218.122 367.924 220.441C369.26 223.448 373.937 228.125 373.937 228.125C373.937 228.125 380.284 234.472 378.948 238.815C377.612 243.158 372.601 248.17 372.601 248.17C372.601 248.17 373.937 268.882 367.256 274.228C360.574 279.573 357.901 275.898 357.901 280.909C357.901 285.92 337.189 301.622 333.18 291.934C333.18 291.934 335.184 273.894 334.516 267.546C333.857 261.29 334.822 222.259 357.877 216.017Z" fill="#D0CDE1"/>
<path d="M368.592 224.45C368.592 224.45 388.97 239.483 385.296 245.831C385.296 245.831 372.935 251.844 370.262 251.51C367.589 251.176 357.233 239.483 354.56 238.481C351.888 237.479 350.552 219.439 368.592 224.45Z" fill="#D0CDE1"/>
<path d="M312.234 237.921C309.065 238.991 306.193 241.495 305.544 244.777C305.243 246.298 305.428 247.879 305.175 249.409C304.588 252.958 301.802 255.667 299.233 258.184C296.665 260.701 294.012 263.626 293.824 267.218C293.619 271.15 296.471 274.835 295.978 278.742C295.404 283.281 290.61 286.223 289.425 290.642C288.633 293.593 289.603 296.772 291.198 299.377C294.239 304.342 299.436 307.713 304.97 309.52C310.505 311.327 316.399 311.707 322.221 311.768C329.309 311.842 337.006 311.233 342.332 306.555C345.374 303.859 347.284 300.112 347.68 296.066C348.186 290.647 345.924 285.048 347.485 279.833C348.466 276.552 350.929 273.555 350.561 270.149C350.202 266.819 347.294 264.459 345.299 261.769C343.436 259.258 342.305 256.291 341.198 253.367L337.407 243.362C336.662 241.395 335.844 239.326 334.183 238.035C331.074 235.619 326.076 236.094 322.44 236.592C319.068 237.054 315.477 236.826 312.234 237.921Z" fill="#2F2E41"/>
<path d="M313.421 267.066C313.421 267.066 315.102 272.527 302.499 278.828C289.897 285.13 303.76 291.851 303.76 291.851L318.462 295.211C318.462 295.211 333.585 293.111 335.265 290.591C336.946 288.07 339.886 279.669 339.046 278.408C338.418 277.511 337.715 276.668 336.946 275.888C336.946 275.888 326.864 274.207 327.284 269.587C327.704 264.966 313.421 267.066 313.421 267.066Z" fill="#FFB9B9"/>
<path opacity="0.1" d="M313.421 267.066C313.421 267.066 315.102 272.527 302.499 278.828C289.897 285.13 303.76 291.851 303.76 291.851L318.462 295.211C318.462 295.211 333.585 293.111 335.265 290.591C336.946 288.07 339.886 279.669 339.046 278.408C338.418 277.511 337.715 276.668 336.946 275.888C336.946 275.888 326.864 274.207 327.284 269.587C327.704 264.966 313.421 267.066 313.421 267.066Z" fill="black"/>
<path d="M321.613 275.678C329.037 275.678 335.055 269.66 335.055 262.235C335.055 254.811 329.037 248.793 321.613 248.793C314.189 248.793 308.17 254.811 308.17 262.235C308.17 269.66 314.189 275.678 321.613 275.678Z" fill="#FFB9B9"/>
<path d="M320.143 290.592C320.143 290.592 303.954 289.408 303.647 278.237C303.647 278.237 297.879 277.569 296.198 279.249C294.518 280.93 289.057 282.19 289.057 286.391C289.057 290.592 298.299 303.194 298.299 303.194C298.299 303.194 303.34 319.997 301.239 322.938C299.139 325.878 298.719 333.44 298.719 333.44C298.719 333.44 319.723 331.759 323.083 333.44C326.444 335.12 339.886 335.12 340.727 333.44C341.567 331.759 339.886 310.755 339.886 310.755C339.886 310.755 343.667 305.714 342.827 299.833L352.909 288.071C352.909 288.071 349.128 276.729 343.247 276.729C343.247 276.729 335.266 274.629 335.055 275.679C334.845 276.729 339.046 288.491 320.143 290.592Z" fill="#FF6584"/>
<path d="M282.336 327.558C282.336 327.558 286.116 333.439 295.778 334.699C305.44 335.959 307.12 332.598 306.28 331.758C305.44 330.918 295.358 327.137 295.358 327.137L289.477 322.517L282.336 327.558Z" fill="#FFB9B9"/>
<path d="M351.228 322.517L340.306 328.818C340.306 328.818 326.024 327.978 331.485 332.178C336.946 336.379 347.028 334.699 347.028 334.699L356.689 330.078L351.228 322.517Z" fill="#FFB9B9"/>
<path d="M296.618 333.439C296.618 333.439 286.537 358.224 298.719 362.005C310.901 365.786 344.507 364.945 352.069 359.904C359.63 354.863 361.731 348.142 360.47 346.042C359.21 343.941 350.809 338.06 344.927 337.64C339.046 337.22 296.618 333.439 296.618 333.439Z" fill="#2F2E41"/>
<path opacity="0.05" d="M296.618 333.439C296.618 333.439 286.537 358.224 298.719 362.005C310.901 365.786 344.507 364.945 352.069 359.904C359.63 354.863 361.731 348.142 360.47 346.042C359.21 343.941 350.809 338.06 344.927 337.64C339.046 337.22 296.618 333.439 296.618 333.439Z" fill="black"/>
<path d="M344.208 334.979C344.208 334.979 379.794 322.097 379.374 337.64C378.954 353.183 356.689 357.384 356.689 357.384L349.968 358.224L313.001 359.484C313.001 359.484 314.262 352.763 311.321 351.923C311.321 351.923 320.983 349.402 321.403 348.982C321.823 348.562 345.767 340.161 347.448 339.741C349.128 339.32 354.169 335.96 357.95 336.38C357.95 336.38 362.15 333.019 366.771 333.859L353.749 334.7L344.208 334.979Z" fill="#2F2E41"/>
<path opacity="0.1" d="M344.208 334.979C344.208 334.979 379.794 322.097 379.374 337.64C378.954 353.183 356.689 357.384 356.689 357.384L349.968 358.224L313.001 359.484C313.001 359.484 314.262 352.763 311.321 351.923C311.321 351.923 320.983 349.402 321.403 348.982C321.823 348.562 345.767 340.161 347.448 339.741C349.128 339.32 354.169 335.96 357.95 336.38C357.95 336.38 362.15 333.019 366.771 333.859L353.749 334.7L344.208 334.979Z" fill="black"/>
<path d="M337.92 337.065L342.407 347.301L369.712 337.639L371.813 332.179L364.671 330.918L350.314 333.439L344.087 335.119L337.92 337.065Z" fill="#2F2E41"/>
<path opacity="0.1" d="M337.92 337.065L342.407 347.301L369.712 337.639L371.813 332.179L364.671 330.918L350.314 333.439L344.087 335.119L337.92 337.065Z" fill="black"/>
<path d="M279.815 349.402C279.815 349.402 287.797 359.483 297.038 362.004C306.28 364.524 311.321 361.164 311.321 361.164L308.38 349.402L307.12 341.84L301.659 338.059L290.737 333.019L277.715 328.818C277.715 328.818 272.254 327.978 272.254 328.818C272.254 329.658 277.295 342.26 277.295 342.26L279.815 349.402Z" fill="#2F2E41"/>
<path d="M289.477 354.863C289.477 354.863 291.157 367.045 293.258 367.885C295.358 368.725 301.659 367.045 303.34 366.205C305.02 365.365 310.732 361.488 310.732 361.488C310.732 361.488 290.737 354.023 289.477 354.863Z" fill="#F2F2F2"/>
<path d="M327.704 356.124L335.686 357.384L334.845 367.046L323.713 364.342L327.704 356.124Z" fill="#FFB9B9"/>
<path d="M332.705 358.812C332.705 358.812 328.964 363.264 332.745 365.785L335.265 367.885C335.265 367.885 343.667 369.565 344.507 370.405C345.347 371.246 348.708 369.145 348.708 369.145C348.708 369.145 349.128 356.543 348.708 355.703C348.288 354.863 343.247 354.022 342.827 354.863C342.407 355.703 337.366 356.963 334.425 356.123L332.705 358.812Z" fill="#F2F2F2"/>
<path d="M299.139 336.38C299.139 336.38 269.733 319.156 265.112 325.458C260.491 331.759 255.45 340.58 268.893 347.302C282.335 354.023 324.343 367.885 324.343 367.885C324.343 367.885 330.645 358.224 330.645 355.703C330.645 355.703 308.38 345.621 304.6 344.781C300.819 343.941 285.696 334.279 283.596 333.439C281.495 332.599 278.555 330.078 278.555 330.078L299.139 336.38Z" fill="#2F2E41"/>
<path d="M290.737 284.29L289.057 285.55C289.057 285.55 285.276 295.212 284.856 300.673C284.436 306.134 279.395 322.937 279.815 325.038C280.235 327.138 280.655 328.818 283.176 330.919C283.176 330.919 286.536 323.357 292.417 324.618L299.559 298.573L290.737 284.29Z" fill="#FF6584"/>
<path d="M349.548 284.29L352.909 288.071C352.909 288.071 355.009 293.112 355.009 294.372C355.009 295.632 359.21 314.116 359.63 314.956C360.05 315.796 361.731 326.298 359.63 328.818C357.53 331.339 353.749 333.019 353.749 333.019C353.749 333.019 356.27 324.197 348.288 323.777L349.128 320.417L341.567 295.212L349.548 284.29Z" fill="#FF6584"/>
<path d="M291.577 313.212V335.34C291.577 336.737 292.127 338.078 293.108 339.073C294.088 340.068 295.421 340.638 296.818 340.659L343.093 341.344C344.482 341.365 345.824 340.841 346.832 339.886C347.84 338.93 348.434 337.618 348.488 336.229L349.339 314.1C349.366 313.391 349.251 312.684 349.001 312.02C348.751 311.356 348.371 310.749 347.883 310.235C347.395 309.72 346.809 309.308 346.159 309.023C345.509 308.738 344.809 308.586 344.1 308.576L296.974 307.893C296.269 307.883 295.569 308.013 294.915 308.276C294.261 308.538 293.665 308.929 293.163 309.424C292.661 309.919 292.262 310.508 291.99 311.159C291.718 311.809 291.577 312.507 291.577 313.212V313.212Z" fill="#3F3D56"/>
<path d="M322.401 261.804C330.393 261.804 336.871 258.316 336.871 254.013C336.871 249.71 330.393 246.222 322.401 246.222C314.41 246.222 307.932 249.71 307.932 254.013C307.932 258.316 314.41 261.804 322.401 261.804Z" fill="#2F2E41"/>
<path d="M319.933 328.188C321.789 328.188 323.293 326.683 323.293 324.827C323.293 322.971 321.789 321.467 319.933 321.467C318.077 321.467 316.572 322.971 316.572 324.827C316.572 326.683 318.077 328.188 319.933 328.188Z" fill="#F2F2F2"/>
</g>
<defs>
<clipPath id="clip0">
<rect width="650" height="378.744" fill="white"/>
</clipPath>
</defs>
</svg>
